<svg xmlns="http://www.w3.org/2000/svg" xmlns:xlink="http://www.w3.org/1999/xlink" version="1.1" data-diagram-type="DESCRIPTION" style="width:705px;height:445px;background:#FFFFFF;" width="705px" height="445px" viewBox="0 0 705 445" zoomAndPan="magnify" preserveAspectRatio="none" contentStyleType="text/css"><?plantuml 1.2026.8?><defs/><g font-family="sans-serif" lengthAdjust="spacing"><!--entity member--><g class="entity" data-qualified-name="member" id="ent0001" data-source-line="4"><ellipse cx="58.359" cy="34.5" rx="8" ry="8" fill="#E6EBEF" style="stroke:#253E52;stroke-width:0.5;"/><path d="M58.359,42.5 L58.359,69.5 M45.359,50.5 L71.359,50.5 M58.359,69.5 L45.359,84.5 M58.359,69.5 L71.359,84.5" style="stroke:#253E52;stroke-width:0.5;" fill="none"/><text x="6" y="97.256" fill="#1C2329" font-size="12" textLength="104.719" font-family="Arial">Household member</text></g><!--entity admin--><g class="entity" data-qualified-name="admin" id="ent0002" data-source-line="5"><ellipse cx="58.344" cy="126.5" rx="8" ry="8" fill="#E6EBEF" style="stroke:#253E52;stroke-width:0.5;"/><path d="M58.344,134.5 L58.344,161.5 M45.344,142.5 L71.344,142.5 M58.344,161.5 L45.344,176.5 M58.344,161.5 L71.344,176.5" style="stroke:#253E52;stroke-width:0.5;" fill="none"/><text x="23" y="189.256" fill="#1C2329" font-size="12" textLength="70.688" font-family="Arial">Administrator</text></g><!--entity ai--><g class="entity" data-qualified-name="ai" id="ent0003" data-source-line="6"><ellipse cx="58.503" cy="218.5" rx="8" ry="8" fill="#E6EBEF" style="stroke:#253E52;stroke-width:0.5;"/><path d="M58.503,226.5 L58.503,253.5 M45.503,234.5 L71.503,234.5 M58.503,253.5 L45.503,268.5 M58.503,253.5 L71.503,268.5" style="stroke:#253E52;stroke-width:0.5;" fill="none"/><text x="28.5" y="281.256" fill="#1C2329" font-size="12" textLength="42.686" font-family="Arial">AI client</text><text x="28.5" y="295.055" fill="#1C2329" font-size="12" textLength="60.006" font-family="Arial">with jx-mcp</text></g><!--entity bank--><g class="entity" data-qualified-name="bank" id="ent0004" data-source-line="7"><rect x="7" y="316.5" width="103.379" height="61.396" fill="#FFF" style="stroke:#253E52;stroke-width:0.5;" rx="2" ry="2"/><text x="30.67" y="337.756" fill="#1C2329" font-size="12" textLength="56.039" font-style="italic" font-family="Arial">«external»</text><text x="17" y="351.555" fill="#1C2329" font-size="12" textLength="83.379" font-family="Arial">Bank statement</text><text x="17" y="365.354" fill="#1C2329" font-size="12" textLength="39.352" font-family="Arial">exports</text></g><!--entity jx--><g class="entity" data-qualified-name="jx" id="ent0005" data-source-line="9"><rect x="282" y="167.5" width="142.057" height="75.195" fill="#FFF" style="stroke:#253E52;stroke-width:0.5;" rx="2" ry="2"/><text x="327.353" y="188.756" fill="#1C2329" font-size="12" textLength="51.352" font-style="italic" font-family="Arial">«system»</text><text x="292" y="202.555" fill="#1C2329" font-size="12" textLength="118.061" font-family="Arial">Jx Finance installation</text><text x="292" y="216.354" fill="#1C2329" font-size="12" font-family="Arial"> </text><text x="292" y="230.152" fill="#1C2329" font-size="12" textLength="122.057" font-family="Arial">SPA, API, PostgreSQL</text></g><!--entity smtp--><g class="entity" data-qualified-name="smtp" id="ent0006" data-source-line="11"><rect x="584" y="12" width="90.008" height="47.598" fill="#FFF" style="stroke:#253E52;stroke-width:0.5;" rx="2" ry="2"/><text x="600.984" y="33.256" fill="#1C2329" font-size="12" textLength="56.039" font-style="italic" font-family="Arial">«external»</text><text x="594" y="47.055" fill="#1C2329" font-size="12" textLength="70.008" font-family="Arial">SMTP server</text></g><!--entity discord--><g class="entity" data-qualified-name="discord" id="ent0007" data-source-line="12"><rect x="570" y="78" width="118.045" height="47.598" fill="#FFF" style="stroke:#253E52;stroke-width:0.5;" rx="2" ry="2"/><text x="601.003" y="99.256" fill="#1C2329" font-size="12" textLength="56.039" font-style="italic" font-family="Arial">«external»</text><text x="580" y="113.055" fill="#1C2329" font-size="12" textLength="98.045" font-family="Arial">Discord webhooks</text></g><!--entity telegram--><g class="entity" data-qualified-name="telegram" id="ent0008" data-source-line="13"><rect x="571.5" y="144" width="114.705" height="47.598" fill="#FFF" style="stroke:#253E52;stroke-width:0.5;" rx="2" ry="2"/><text x="600.833" y="165.256" fill="#1C2329" font-size="12" textLength="56.039" font-style="italic" font-family="Arial">«external»</text><text x="581.5" y="179.055" fill="#1C2329" font-size="12" textLength="94.705" font-family="Arial">Telegram Bot API</text></g><!--entity frankfurter--><g class="entity" data-qualified-name="frankfurter" id="ent0009" data-source-line="14"><rect x="578" y="210.5" width="102.055" height="61.396" fill="#FFF" style="stroke:#253E52;stroke-width:0.5;" rx="2" ry="2"/><text x="601.008" y="231.756" fill="#1C2329" font-size="12" textLength="56.039" font-style="italic" font-family="Arial">«external»</text><text x="588" y="245.555" fill="#1C2329" font-size="12" textLength="58.682" font-family="Arial">Frankfurter</text><text x="588" y="259.354" fill="#1C2329" font-size="12" textLength="82.055" font-family="Arial">exchange rates</text></g><!--entity prices--><g class="entity" data-qualified-name="prices" id="ent0010" data-source-line="15"><rect x="575" y="289.5" width="108.025" height="61.396" fill="#FFF" style="stroke:#253E52;stroke-width:0.5;" rx="2" ry="2"/><text x="600.993" y="310.756" fill="#1C2329" font-size="12" textLength="56.039" font-style="italic" font-family="Arial">«external»</text><text x="585" y="324.555" fill="#1C2329" font-size="12" textLength="88.025" font-family="Arial">EODHD, Kraken</text><text x="585" y="338.354" fill="#1C2329" font-size="12" textLength="72.018" font-family="Arial">market prices</text></g><!--entity ibkr--><g class="entity" data-qualified-name="ibkr" id="ent0011" data-source-line="16"><rect x="569" y="368.5" width="120.037" height="61.396" fill="#FFF" style="stroke:#253E52;stroke-width:0.5;" rx="2" ry="2"/><text x="600.999" y="389.756" fill="#1C2329" font-size="12" textLength="56.039" font-style="italic" font-family="Arial">«external»</text><text x="579" y="403.555" fill="#1C2329" font-size="12" textLength="100.037" font-family="Arial">Interactive Brokers</text><text x="579" y="417.354" fill="#1C2329" font-size="12" textLength="94.025" font-family="Arial">Flex Web Service</text></g><g class="link" data-entity-1="ent0001" data-entity-2="ent0005" id="lnk12" data-link-type="dependency"><polygon points="313.103,167.49,308.905,158.58,309.319,164.222,303.677,164.635,313.103,167.49" fill="#5D6872" style="stroke:#5D6872;stroke-width:1;stroke-linejoin:miter;stroke-miterlimit:10;"/><path d="M111.261,74.828 C153.968,85.885 215.246,104.796 264,132 C281.334,141.672 294.769,151.659 309.319,164.222" style="stroke:#5D6872;stroke-width:1;" fill="none"/><text x="177.019" y="63.318" fill="#5D6872" font-size="11" textLength="39.112" font-family="Arial">HTTPS,</text><text x="160.5" y="75.967" fill="#5D6872" font-size="11" textLength="72.15" font-family="Arial">cookie session</text></g><g class="link" data-entity-1="ent0002" data-entity-2="ent0005" id="lnk13" data-link-type="dependency"><polygon points="281.928,190.361,273.852,184.723,277.019,189.411,272.332,192.578,281.928,190.361" fill="#5D6872" style="stroke:#5D6872;stroke-width:1;stroke-linejoin:miter;stroke-miterlimit:10;"/><path d="M94.319,159.944 C135.083,165.85 204.587,176.281 264,187 C269.832,188.052 270.962,188.238 277.019,189.411" style="stroke:#5D6872;stroke-width:1;" fill="none"/><text x="131" y="148.318" fill="#5D6872" font-size="11" textLength="131.441" font-family="Arial">HTTPS settings and users,</text><text x="149.955" y="160.967" fill="#5D6872" font-size="11" textLength="93.532" font-family="Arial">recovery command</text></g><g class="link" data-entity-1="ent0003" data-entity-2="ent0005" id="lnk14" data-link-type="dependency"><polygon points="281.977,216.73,272.44,214.272,277.045,217.556,273.761,222.162,281.977,216.73" fill="#5D6872" style="stroke:#5D6872;stroke-width:1;stroke-linejoin:miter;stroke-miterlimit:10;"/><path d="M88.615,249.123 C133.338,241.63 215.304,227.899 277.045,217.556" style="stroke:#5D6872;stroke-width:1;" fill="none"/><text x="177.417" y="203.318" fill="#5D6872" font-size="11" textLength="39.112" font-family="Arial">HTTPS,</text><text x="150.5" y="215.967" fill="#5D6872" font-size="11" textLength="92.947" font-family="Arial">personal API token</text></g><g class="link" data-entity-1="ent0004" data-entity-2="ent0005" id="lnk15" data-link-type="dependency"><polygon points="310.618,242.584,301.115,245.171,306.742,245.744,306.17,251.371,310.618,242.584" fill="#5D6872" style="stroke:#5D6872;stroke-width:1;stroke-linejoin:miter;stroke-miterlimit:10;"/><path d="M110.237,334.246 C152.877,322.35 214.595,302.328 264,275 C280.229,266.023 292.656,257.229 306.742,245.744" style="stroke:#5D6872;stroke-width:1;stroke-dasharray:7,7;" fill="none"/><text x="140.5" y="258.318" fill="#5D6872" font-size="11" textLength="112.498" font-family="Arial">files in the import inbox</text><text x="146.596" y="270.967" fill="#5D6872" font-size="11" textLength="100.305" font-family="Arial">or uploaded by hand</text></g><g class="link" data-entity-1="ent0005" data-entity-2="ent0006" id="lnk16" data-link-type="dependency"><polygon points="583.689,45.171,573.996,43.427,578.833,46.36,575.9,51.197,583.689,45.171" fill="#5D6872" style="stroke:#5D6872;stroke-width:1;stroke-linejoin:miter;stroke-miterlimit:10;"/><path d="M379.129,167.219 C394.988,145.86 417.139,120.094 442,103 C485.555,73.052 539.16,56.079 578.833,46.36" style="stroke:#5D6872;stroke-width:1;" fill="none"/><text x="460" y="38.318" fill="#5D6872" font-size="11" textLength="73.998" font-family="Arial">notification and</text><text x="460.314" y="50.967" fill="#5D6872" font-size="11" textLength="73.369" font-family="Arial">account emails</text></g><g class="link" data-entity-1="ent0005" data-entity-2="ent0007" id="lnk17" data-link-type="dependency"><polygon points="569.994,116.284,560.267,114.741,565.163,117.574,562.33,122.471,569.994,116.284" fill="#5D6872" style="stroke:#5D6872;stroke-width:1;stroke-linejoin:miter;stroke-miterlimit:10;"/><path d="M421.088,167.435 C428.061,164.055 435.116,160.842 442,158 C483.77,140.757 527.943,127.512 565.163,117.574" style="stroke:#5D6872;stroke-width:1;" fill="none"/><text x="456" y="119.318" fill="#5D6872" font-size="11" textLength="81.936" font-family="Arial">notification posts</text></g><g class="link" data-entity-1="ent0005" data-entity-2="ent0008" id="lnk18" data-link-type="dependency"><polygon points="571.331,175.652,561.877,172.893,566.376,176.322,562.947,180.821,571.331,175.652" fill="#5D6872" style="stroke:#5D6872;stroke-width:1;stroke-linejoin:miter;stroke-miterlimit:10;"/><path d="M424.206,195.52 C469.871,189.353 523.69,182.086 566.376,176.322" style="stroke:#5D6872;stroke-width:1;" fill="none"/><text x="444" y="174.318" fill="#5D6872" font-size="11" textLength="105.778" font-family="Arial">notification messages</text></g><g class="link" data-entity-1="ent0005" data-entity-2="ent0009" id="lnk19" data-link-type="dependency"><polygon points="577.866,234.413,569.463,229.275,572.908,233.762,568.421,237.207,577.866,234.413" fill="#5D6872" style="stroke:#5D6872;stroke-width:1;stroke-linejoin:miter;stroke-miterlimit:10;"/><path d="M424.206,214.224 C472.249,220.536 529.845,228.104 572.908,233.762" style="stroke:#5D6872;stroke-width:1;" fill="none"/><text x="471.5" y="212.318" fill="#5D6872" font-size="11" textLength="50.134" font-family="Arial">daily rates</text></g><g class="link" data-entity-1="ent0005" data-entity-2="ent0010" id="lnk20" data-link-type="dependency"><polygon points="574.849,301.797,567.7,295.023,570.135,300.128,565.03,302.564,574.849,301.797" fill="#5D6872" style="stroke:#5D6872;stroke-width:1;stroke-linejoin:miter;stroke-miterlimit:10;"/><path d="M424.268,241.815 C430.227,244.667 436.193,247.432 442,250 C486.02,269.464 532.583,286.833 570.135,300.128" style="stroke:#5D6872;stroke-width:1;" fill="none"/><text x="461.5" y="246.318" fill="#5D6872" font-size="11" textLength="70.297" font-family="Arial">security prices</text></g><g class="link" data-entity-1="ent0005" data-entity-2="ent0011" id="lnk21" data-link-type="dependency"><polygon points="568.584,378.587,561.651,371.592,563.925,376.771,558.745,379.045,568.584,378.587" fill="#5D6872" style="stroke:#5D6872;stroke-width:1;stroke-linejoin:miter;stroke-miterlimit:10;"/><path d="M378.932,242.651 C394.954,264.693 417.34,291.865 442,311 C480.242,340.675 525.452,361.774 563.925,376.771" style="stroke:#5D6872;stroke-width:1;" fill="none"/><text x="457.5" y="307.318" fill="#5D6872" font-size="11" textLength="78.273" font-family="Arial">trades and cash</text></g><?plantuml-src RPFRZjf038RlynGkry03h5P88Bg27bGga7h3pMHY4c_c4CqukydRrqE0fe1oauo_t_ROVxwGqwOj42Bt1kVKMfCPF36mXq1bnL1GGCtaNPOfpJx0PEFRY9Kt1LYqEOO9g7XvlIBBmfAZo479vpckqiajl0Lj21qVtITn1U_TpEfcu2XBzPGh3S9afLmjhIb6UwQnQtpWE87NL-mOWrDciKYoNC1ihFpMmHivvJG2ESbWZ4gNECgptosdiDnjfx3paSk0-zy_KiROHwapv7ll_iks_tdOGSJmaMvxNpjQRiRmcgBseO1Fp2llwoVT5WCn5XtGO1cKXPNdrDoZY2_4MFKMvDwdDWYNXgChEKUGgUEJggT_y3Z7rr_hpNeAtuEgKQPZLQYHeGcadoKPpiVwhPEuB9O-45R1rnZYqRqPxE0Fvh2NeOdYCH7bTSYomJOmcoravF02cyDXjvyUdPR1aRWIOqpMExldZf8WCxbIFECA44k6A49fpCkMUj3UMWbaYXwpDy9wwIGDMfmkzywIWM0-lu0dCYWjEk1A_6EJwUGhzztHYN_RndXLO05v3rMgaOae5KbE4BNpJ2VIPyEbvevEQUrRnu1MaObN_6A3UqKZhhmnrwtVGrOceqgySQFb2bf8cNxmmHKO5YUnYBeDnFrrbPTuseT4vPSjS1YfLh7w2m00?></g></svg>